<svg width="14" height="30" viewBox="0 0 14 30" fill="none" xmlns="http://www.w3.org/2000/svg">
<mask id="path-1-outside-1_66_41" maskUnits="userSpaceOnUse" x="0" y="11" width="13" height="14" fill="black">
<rect fill="white" y="11" width="13" height="14"/>
<path d="M8.04 24L7.776 22.512C7.344 23.008 6.896 23.408 6.432 23.712C5.984 24.016 5.376 24.168 4.608 24.168C3.904 24.168 3.256 24.04 2.664 23.784C2.088 23.512 1.624 23.12 1.272 22.608C0.92 22.096 0.744 21.472 0.744 20.736C0.744 19.744 1.096 18.928 1.8 18.288C2.504 17.648 3.616 17.24 5.136 17.064L7.776 16.776V16.08C7.776 15.856 7.664 15.632 7.44 15.408C7.216 15.168 6.872 15.048 6.408 15.048C5.992 15.048 5.632 15.16 5.328 15.384C5.024 15.608 4.816 15.92 4.704 16.32L1.368 15.12C1.736 14.032 2.36 13.216 3.24 12.672C4.12 12.112 5.224 11.832 6.552 11.832C8.232 11.832 9.512 12.248 10.392 13.08C11.272 13.912 11.712 15.056 11.712 16.512V24H8.04ZM7.776 18.984L5.904 19.2C5.536 19.248 5.256 19.368 5.064 19.56C4.872 19.752 4.776 19.984 4.776 20.256C4.776 20.528 4.888 20.752 5.112 20.928C5.352 21.104 5.68 21.192 6.096 21.192C6.432 21.192 6.72 21.12 6.96 20.976C7.216 20.816 7.416 20.592 7.56 20.304C7.704 20.016 7.776 19.656 7.776 19.224V18.984Z"/>
</mask>
<path d="M8.04 24L7.54769 24.0873L7.6209 24.5H8.04V24ZM7.776 22.512L8.26831 22.4247L8.08566 21.3952L7.39896 22.1836L7.776 22.512ZM6.432 23.712L6.15795 23.2937L6.15125 23.2983L6.432 23.712ZM2.664 23.784L2.4505 24.2361L2.45796 24.2397L2.46554 24.2429L2.664 23.784ZM1.272 22.608L1.68402 22.3247L1.68402 22.3247L1.272 22.608ZM1.8 18.288L2.13634 18.658L2.13634 18.658L1.8 18.288ZM5.136 17.064L5.08178 16.5669L5.07849 16.5673L5.136 17.064ZM7.776 16.776L7.83022 17.2731L8.276 17.2244V16.776H7.776ZM7.44 15.408L7.07447 15.7492L7.08035 15.7555L7.08645 15.7616L7.44 15.408ZM5.328 15.384L5.6246 15.7865L5.6246 15.7865L5.328 15.384ZM4.704 16.32L4.53476 16.7905L5.04055 16.9724L5.18548 16.4548L4.704 16.32ZM1.368 15.12L0.89436 14.9598L0.737196 15.4245L1.19876 15.5905L1.368 15.12ZM3.24 12.672L3.50293 13.0973L3.50844 13.0938L3.24 12.672ZM10.392 13.08L10.0485 13.4433L10.0485 13.4433L10.392 13.08ZM11.712 24V24.5H12.212V24H11.712ZM7.776 18.984H8.276V18.423L7.71869 18.4873L7.776 18.984ZM5.904 19.2L5.84668 18.7032L5.83933 18.7042L5.904 19.2ZM5.064 19.56L5.41755 19.9136L5.41755 19.9136L5.064 19.56ZM5.112 20.928L4.80309 21.3212L4.80962 21.3263L4.81632 21.3312L5.112 20.928ZM6.96 20.976L7.21729 21.4048L7.225 21.4L6.96 20.976ZM7.56 20.304L8.00721 20.5276L8.00721 20.5276L7.56 20.304ZM8.53231 23.9127L8.26831 22.4247L7.28369 22.5993L7.54769 24.0873L8.53231 23.9127ZM7.39896 22.1836C6.99162 22.6513 6.57737 23.019 6.15799 23.2938L6.70601 24.1302C7.21463 23.797 7.69638 23.3647 8.15304 22.8404L7.39896 22.1836ZM6.15125 23.2983C5.81408 23.5271 5.31612 23.668 4.608 23.668V24.668C5.43588 24.668 6.15392 24.5049 6.71275 24.1257L6.15125 23.2983ZM4.608 23.668C3.96596 23.668 3.38627 23.5516 2.86246 23.3251L2.46554 24.2429C3.12573 24.5284 3.84204 24.668 4.608 24.668V23.668ZM2.8775 23.3319C2.37933 23.0966 1.98463 22.762 1.68402 22.3247L0.859979 22.8913C1.26337 23.478 1.79667 23.9274 2.4505 24.2361L2.8775 23.3319ZM1.68402 22.3247C1.39926 21.9105 1.244 21.3899 1.244 20.736H0.244C0.244 21.5541 0.440741 22.2815 0.859979 22.8913L1.68402 22.3247ZM1.244 20.736C1.244 19.8781 1.5415 19.1987 2.13634 18.658L1.46366 17.918C0.650497 18.6573 0.244 19.6099 0.244 20.736H1.244ZM2.13634 18.658C2.72868 18.1195 3.71931 17.7314 5.19351 17.5607L5.07849 16.5673C3.51269 16.7486 2.27932 17.1765 1.46366 17.918L2.13634 18.658ZM5.19022 17.5611L7.83022 17.2731L7.72178 16.2789L5.08178 16.5669L5.19022 17.5611ZM8.276 16.776V16.08H7.276V16.776H8.276ZM8.276 16.08C8.276 15.6766 8.07205 15.3329 7.79355 15.0544L7.08645 15.7616C7.25595 15.9311 7.276 16.0354 7.276 16.08H8.276ZM7.80553 15.0668C7.4533 14.6895 6.95202 14.548 6.408 14.548V15.548C6.79198 15.548 6.9787 15.6465 7.07447 15.7492L7.80553 15.0668ZM6.408 14.548C5.89669 14.548 5.43009 14.6877 5.0314 14.9815L5.6246 15.7865C5.83391 15.6323 6.08731 15.548 6.408 15.548V14.548ZM5.0314 14.9815C4.62857 15.2783 4.36139 15.6892 4.22252 16.1852L5.18548 16.4548C5.27061 16.1508 5.41943 15.9377 5.6246 15.7865L5.0314 14.9815ZM4.87324 15.8495L1.53724 14.6495L1.19876 15.5905L4.53476 16.7905L4.87324 15.8495ZM1.84164 15.2802C2.17675 14.2894 2.73288 13.5733 3.50291 13.0973L2.97709 12.2467C1.98712 12.8587 1.29525 13.7745 0.89436 14.9598L1.84164 15.2802ZM3.50844 13.0938C4.28896 12.5971 5.29335 12.332 6.552 12.332V11.332C5.15465 11.332 3.95104 11.6269 2.97156 12.2502L3.50844 13.0938ZM6.552 12.332C8.1542 12.332 9.29219 12.7283 10.0485 13.4433L10.7355 12.7167C9.73181 11.7677 8.3098 11.332 6.552 11.332V12.332ZM10.0485 13.4433C10.8087 14.1621 11.212 15.1635 11.212 16.512H12.212C12.212 14.9485 11.7353 13.6619 10.7355 12.7167L10.0485 13.4433ZM11.212 16.512V24H12.212V16.512H11.212ZM11.712 23.5H8.04V24.5H11.712V23.5ZM7.71869 18.4873L5.84669 18.7033L5.96131 19.6967L7.83331 19.4807L7.71869 18.4873ZM5.83933 18.7042C5.40158 18.7613 5.0046 18.9123 4.71045 19.2064L5.41755 19.9136C5.5074 19.8237 5.67042 19.7347 5.96867 19.6958L5.83933 18.7042ZM4.71045 19.2064C4.4245 19.4924 4.276 19.8517 4.276 20.256H5.276C5.276 20.1163 5.31951 20.0116 5.41755 19.9136L4.71045 19.2064ZM4.276 20.256C4.276 20.6897 4.46507 21.0556 4.80309 21.3212L5.42091 20.5348C5.31093 20.4484 5.276 20.3663 5.276 20.256H4.276ZM4.81632 21.3312C5.17021 21.5907 5.61485 21.692 6.096 21.692V20.692C5.74515 20.692 5.53379 20.6173 5.40768 20.5248L4.81632 21.3312ZM6.096 21.692C6.50438 21.692 6.88526 21.6039 7.21725 21.4047L6.70275 20.5473C6.55474 20.6361 6.35963 20.692 6.096 20.692V21.692ZM7.225 21.4C7.56426 21.188 7.82492 20.8922 8.00721 20.5276L7.11279 20.0804C7.00708 20.2918 6.86774 20.444 6.695 20.552L7.225 21.4ZM8.00721 20.5276C8.1957 20.1506 8.276 19.7083 8.276 19.224H7.276C7.276 19.6037 7.2123 19.8814 7.11279 20.0804L8.00721 20.5276ZM8.276 19.224V18.984H7.276V19.224H8.276Z" fill="#AA6617" mask="url(#path-1-outside-1_66_41)"/>
<path d="M9.04 23L8.776 21.512C8.344 22.008 7.896 22.408 7.432 22.712C6.984 23.016 6.376 23.168 5.608 23.168C4.904 23.168 4.256 23.04 3.664 22.784C3.088 22.512 2.624 22.12 2.272 21.608C1.92 21.096 1.744 20.472 1.744 19.736C1.744 18.744 2.096 17.928 2.8 17.288C3.504 16.648 4.616 16.24 6.136 16.064L8.776 15.776V15.08C8.776 14.856 8.664 14.632 8.44 14.408C8.216 14.168 7.872 14.048 7.408 14.048C6.992 14.048 6.632 14.16 6.328 14.384C6.024 14.608 5.816 14.92 5.704 15.32L2.368 14.12C2.736 13.032 3.36 12.216 4.24 11.672C5.12 11.112 6.224 10.832 7.552 10.832C9.232 10.832 10.512 11.248 11.392 12.08C12.272 12.912 12.712 14.056 12.712 15.512V23H9.04ZM8.776 17.984L6.904 18.2C6.536 18.248 6.256 18.368 6.064 18.56C5.872 18.752 5.776 18.984 5.776 19.256C5.776 19.528 5.888 19.752 6.112 19.928C6.352 20.104 6.68 20.192 7.096 20.192C7.432 20.192 7.72 20.12 7.96 19.976C8.216 19.816 8.416 19.592 8.56 19.304C8.704 19.016 8.776 18.656 8.776 18.224V17.984Z" fill="#9D5E16"/>
</svg>
